<svg width="136" height="47" viewBox="0 0 136 47" fill="none" xmlns="http://www.w3.org/2000/svg">
<g clip-path="url(#clip0_1581_12012)">
<path d="M124.679 0.93667H11.1861C10.7724 0.93667 10.3636 0.93667 9.95104 0.938926C9.60566 0.941183 9.26302 0.947737 8.91432 0.953254C8.15678 0.962169 7.40102 1.02881 6.6536 1.15261C5.90724 1.2791 5.18426 1.51758 4.50911 1.85997C3.83479 2.20525 3.21864 2.65392 2.68302 3.18968C2.14459 3.72394 1.69576 4.34147 1.3538 5.01853C1.0109 5.69424 0.773126 6.41832 0.648701 7.16577C0.523093 7.91228 0.455502 8.6674 0.446535 9.42435C0.436066 9.77024 0.43496 10.1173 0.429443 10.4632V36.5398C0.43496 36.8901 0.436066 37.2294 0.446535 37.5798C0.455505 38.3367 0.523096 39.0918 0.648701 39.8383C0.772782 40.5862 1.01057 41.3107 1.3538 41.9866C1.6956 42.6615 2.14449 43.2765 2.68302 43.8078C3.21661 44.346 3.83316 44.7949 4.50911 45.1376C5.18426 45.4809 5.90716 45.7208 6.6536 45.8492C7.40114 45.972 8.15683 46.0387 8.91432 46.0487C9.26302 46.0563 9.60566 46.0607 9.95104 46.0607C10.3636 46.063 10.7724 46.063 11.1861 46.063H124.679C125.084 46.063 125.496 46.063 125.902 46.0607C126.246 46.0607 126.598 46.0563 126.942 46.0487C127.698 46.0392 128.452 45.9725 129.198 45.8492C129.947 45.7199 130.673 45.48 131.351 45.1376C132.026 44.7947 132.642 44.3458 133.175 43.8078C133.713 43.2744 134.162 42.6599 134.508 41.9866C134.849 41.3102 135.085 40.5857 135.207 39.8383C135.333 39.0917 135.403 38.3368 135.416 37.5798C135.421 37.2294 135.421 36.8901 135.421 36.5398C135.429 36.1299 135.429 35.7223 135.429 35.3058V11.6949C135.429 11.2818 135.429 10.872 135.421 10.4632C135.421 10.1173 135.421 9.77024 135.416 9.4243C135.403 8.66729 135.333 7.91234 135.207 7.16573C135.084 6.41871 134.849 5.69468 134.508 5.01848C133.812 3.66139 132.708 2.55673 131.351 1.85986C130.673 1.51831 129.947 1.2799 129.198 1.15251C128.452 1.02817 127.698 0.961498 126.942 0.953096C126.598 0.947591 126.246 0.94098 125.902 0.93878C125.496 0.936523 125.084 0.936523 124.679 0.936523V0.93667Z" fill="#A6A6A6"/>
<path d="M9.95652 45.0759C9.61279 45.0759 9.27737 45.0715 8.93634 45.0638C8.22986 45.0546 7.52504 44.9931 6.82765 44.8798C6.17737 44.7678 5.54742 44.5595 4.95858 44.2617C4.37515 43.9664 3.84301 43.5791 3.38255 43.1148C2.91542 42.656 2.52652 42.1238 2.23125 41.5393C1.93273 40.9511 1.72613 40.3206 1.61866 39.6697C1.5026 38.9704 1.43981 38.2633 1.43082 37.5545C1.42367 37.3165 1.41431 36.5243 1.41431 36.5243V10.4632C1.41431 10.4632 1.42428 9.68322 1.43088 9.45406C1.43948 8.74634 1.50191 8.04031 1.61762 7.34207C1.72529 6.68945 1.93205 6.05712 2.23073 5.46696C2.52492 4.88292 2.91166 4.35034 3.37597 3.88985C3.83976 3.42498 4.3736 3.03575 4.95803 2.73634C5.54551 2.4395 6.17427 2.23264 6.82324 2.12269C7.52292 2.00826 8.23019 1.94639 8.93911 1.9376L9.95707 1.92383H125.896L126.926 1.93816C127.629 1.9465 128.33 2.00782 129.023 2.12158C129.678 2.23292 130.314 2.44122 130.908 2.73964C132.079 3.34304 133.031 4.29766 133.632 5.46971C133.926 6.0558 134.13 6.68297 134.236 7.32995C134.353 8.03392 134.419 8.74551 134.432 9.45902C134.436 9.77852 134.436 10.1217 134.436 10.4632C134.445 10.8863 134.445 11.289 134.445 11.695V35.3058C134.445 35.7157 134.445 36.1156 134.436 36.5188C134.436 36.8857 134.436 37.2218 134.431 37.5676C134.418 38.2684 134.354 38.9673 134.238 39.6587C134.133 40.3142 133.928 40.9497 133.629 41.5427C133.332 42.1208 132.945 42.6484 132.483 43.106C132.023 43.5728 131.49 43.9623 130.905 44.2595C130.312 44.5596 129.678 44.7687 129.023 44.8798C128.326 44.9937 127.621 45.0552 126.914 45.0638C126.584 45.0715 126.238 45.0759 125.902 45.0759L124.679 45.0781L9.95652 45.0759Z" fill="black"/>
<path d="M28.3727 23.8393C28.3848 22.8977 28.6349 21.9744 29.0997 21.1554C29.5646 20.3364 30.229 19.6483 31.0312 19.1551C30.5216 18.4273 29.8493 17.8283 29.0677 17.4057C28.286 16.9832 27.4167 16.7487 26.5286 16.7209C24.6341 16.5221 22.7975 17.8545 21.8322 17.8545C20.8481 17.8545 19.3618 16.7407 17.7612 16.7736C16.7259 16.807 15.717 17.1081 14.8326 17.6474C13.9483 18.1867 13.2187 18.9459 12.715 19.8511C10.5332 23.6286 12.1607 29.1803 14.2507 32.2338C15.2964 33.729 16.5185 35.3992 18.1176 35.34C19.6824 35.2751 20.2669 34.3421 22.1557 34.3421C24.0271 34.3421 24.5754 35.34 26.207 35.3023C27.8861 35.2751 28.944 33.8005 29.953 32.2911C30.7043 31.2257 31.2825 30.0482 31.666 28.8023C30.6905 28.3897 29.858 27.699 29.2724 26.8165C28.6867 25.9339 28.3738 24.8985 28.3727 23.8393Z" fill="white"/>
<path d="M25.2909 14.7126C26.2065 13.6136 26.6575 12.2009 26.5483 10.7747C25.1496 10.9216 23.8575 11.5901 22.9296 12.647C22.4759 13.1633 22.1285 13.764 21.9071 14.4146C21.6857 15.0653 21.5947 15.7533 21.6393 16.4391C22.339 16.4463 23.0311 16.2947 23.6636 15.9956C24.2961 15.6966 24.8525 15.2579 25.2909 14.7126Z" fill="white"/>
<path d="M48.1531 31.5546H42.8131L41.5307 35.3413H39.2689L44.3268 21.3318H46.6768L51.7348 35.3413H49.4344L48.1531 31.5546ZM43.3661 29.8073H47.599L45.5123 23.6619H45.4539L43.3661 29.8073Z" fill="white"/>
<path d="M62.6583 30.2346C62.6583 33.4087 60.9595 35.448 58.3958 35.448C57.7463 35.4819 57.1005 35.3323 56.5321 35.0163C55.9638 34.7002 55.4959 34.2305 55.1821 33.6609H55.1336V38.72H53.037V25.1271H55.0664V26.8259H55.1049C55.4332 26.2591 55.909 25.7918 56.4817 25.4738C57.0543 25.1558 57.7025 24.9991 58.3572 25.0202C60.9495 25.0202 62.6583 27.0694 62.6583 30.2346ZM60.5034 30.2346C60.5034 28.1667 59.4347 26.8072 57.8041 26.8072C56.2022 26.8072 55.1248 28.1953 55.1248 30.2346C55.1248 32.2926 56.2022 33.6709 57.8041 33.6709C59.4347 33.6709 60.5034 32.3213 60.5034 30.2346Z" fill="white"/>
<path d="M73.9002 30.2349C73.9002 33.4089 72.2013 35.4482 69.6377 35.4482C68.9882 35.4822 68.3424 35.3326 67.774 35.0165C67.2056 34.7005 66.7378 34.2308 66.424 33.6612H66.3754V38.7203H64.2789V25.1273H66.3082V26.8261H66.3468C66.675 26.2593 67.1508 25.792 67.7235 25.4741C68.2962 25.1561 68.9444 24.9993 69.5991 25.0204C72.1914 25.0204 73.9002 27.0696 73.9002 30.2349ZM71.7452 30.2349C71.7452 28.167 70.6766 26.8074 69.046 26.8074C67.4441 26.8074 66.3666 28.1956 66.3666 30.2349C66.3666 32.2929 67.4441 33.6711 69.046 33.6711C70.6766 33.6711 71.7452 32.3215 71.7452 30.2349H71.7452Z" fill="white"/>
<path d="M81.3302 31.4378C81.4855 32.8271 82.8352 33.7393 84.6794 33.7393C86.4466 33.7393 87.718 32.827 87.718 31.5744C87.718 30.487 86.9512 29.8359 85.1355 29.3897L83.3199 28.9523C80.7474 28.3309 79.5531 27.1278 79.5531 25.1756C79.5531 22.7584 81.6596 21.0981 84.6508 21.0981C87.6111 21.0981 89.6404 22.7584 89.7088 25.1756H87.5923C87.4656 23.7775 86.3099 22.9336 84.621 22.9336C82.9321 22.9336 81.7764 23.7874 81.7764 25.0302C81.7764 26.0206 82.5145 26.6034 84.3202 27.0496L85.8637 27.4286C88.7381 28.1083 89.9324 29.263 89.9324 31.3121C89.9324 33.9331 87.8446 35.5747 84.524 35.5747C81.4172 35.5747 79.3195 33.9717 79.184 31.4377L81.3302 31.4378Z" fill="white"/>
<path d="M94.4572 22.71V25.1271H96.3995V26.7874H94.4572V32.4183C94.4572 33.2931 94.8461 33.7007 95.6999 33.7007C95.9305 33.6967 96.1607 33.6805 96.3896 33.6522V35.3026C96.0057 35.3743 95.6155 35.4068 95.2251 35.3995C93.1572 35.3995 92.3507 34.6228 92.3507 32.6419V26.7874H90.8656V25.1271H92.3507V22.71H94.4572Z" fill="white"/>
<path d="M97.5244 30.2349C97.5244 27.0212 99.4172 25.0017 102.369 25.0017C105.33 25.0017 107.214 27.0211 107.214 30.2349C107.214 33.4574 105.34 35.468 102.369 35.468C99.3984 35.468 97.5244 33.4574 97.5244 30.2349ZM105.078 30.2349C105.078 28.0303 104.068 26.7292 102.369 26.7292C100.67 26.7292 99.6606 28.0402 99.6606 30.2349C99.6606 32.4482 100.67 33.7394 102.369 33.7394C104.068 33.7394 105.078 32.4482 105.078 30.2349H105.078Z" fill="white"/>
<path d="M108.943 25.1272H110.942V26.8657H110.991C111.126 26.3227 111.444 25.8429 111.891 25.5068C112.339 25.1708 112.888 24.999 113.447 25.0203C113.689 25.0195 113.93 25.0457 114.166 25.0986V27.0596C113.861 26.9664 113.543 26.9236 113.224 26.9329C112.919 26.9206 112.616 26.9743 112.334 27.0903C112.052 27.2064 111.798 27.3821 111.591 27.6054C111.383 27.8286 111.227 28.0941 111.131 28.3837C111.036 28.6733 111.005 28.98 111.039 29.2829V35.3412H108.943L108.943 25.1272Z" fill="white"/>
<path d="M123.832 32.3411C123.55 34.1953 121.744 35.4678 119.434 35.4678C116.463 35.4678 114.619 33.477 114.619 30.2831C114.619 27.0793 116.473 25.0015 119.346 25.0015C122.172 25.0015 123.949 26.9427 123.949 30.0396V30.7579H116.735V30.8846C116.702 31.2605 116.749 31.6392 116.873 31.9955C116.997 32.3519 117.196 32.6776 117.456 32.9513C117.716 33.2249 118.031 33.4401 118.38 33.5826C118.73 33.7251 119.106 33.7916 119.483 33.7777C119.978 33.8242 120.475 33.7094 120.9 33.4506C121.325 33.1917 121.655 32.8026 121.841 32.3411L123.832 32.3411ZM116.745 29.2927H121.851C121.87 28.9547 121.819 28.6164 121.701 28.2992C121.583 27.9819 121.4 27.6925 121.165 27.4491C120.93 27.2057 120.647 27.0135 120.334 26.8847C120.021 26.7558 119.684 26.693 119.346 26.7003C119.005 26.6983 118.666 26.7639 118.35 26.8933C118.034 27.0228 117.747 27.2135 117.505 27.4545C117.264 27.6955 117.072 27.982 116.941 28.2975C116.811 28.613 116.744 28.9512 116.745 29.2927V29.2927Z" fill="white"/>
<path d="M43.1034 10.7867C43.5429 10.7551 43.984 10.8216 44.3947 10.9811C44.8055 11.1407 45.1758 11.3894 45.4788 11.7094C45.7818 12.0294 46.01 12.4126 46.147 12.8314C46.2839 13.2503 46.3262 13.6943 46.2708 14.1315C46.2708 16.2821 45.1085 17.5182 43.1034 17.5182H40.6719V10.7867H43.1034ZM41.7174 16.5662H42.9866C43.3007 16.585 43.615 16.5335 43.9066 16.4155C44.1983 16.2975 44.46 16.1159 44.6727 15.884C44.8853 15.6521 45.0436 15.3757 45.1359 15.0749C45.2283 14.7741 45.2524 14.4565 45.2065 14.1452C45.2491 13.8352 45.2225 13.5195 45.1287 13.221C45.035 12.9224 44.8763 12.6482 44.6641 12.4182C44.452 12.1881 44.1916 12.0078 43.9015 11.8902C43.6115 11.7726 43.2991 11.7206 42.9866 11.738H41.7174V16.5662Z" fill="white"/>
<path d="M47.4518 14.9759C47.4199 14.642 47.4581 14.3052 47.5639 13.987C47.6698 13.6688 47.841 13.3762 48.0666 13.128C48.2921 12.8799 48.5671 12.6816 48.8738 12.5459C49.1805 12.4102 49.5121 12.3401 49.8475 12.3401C50.1829 12.3401 50.5145 12.4102 50.8212 12.5459C51.1279 12.6816 51.4029 12.8799 51.6284 13.128C51.854 13.3762 52.0252 13.6688 52.1311 13.987C52.2369 14.3052 52.2751 14.642 52.2432 14.9759C52.2757 15.3101 52.238 15.6474 52.1324 15.9661C52.0268 16.2848 51.8557 16.578 51.6301 16.8266C51.4045 17.0753 51.1293 17.274 50.8223 17.41C50.5153 17.546 50.1833 17.6162 49.8475 17.6162C49.5117 17.6162 49.1797 17.546 48.8727 17.41C48.5657 17.274 48.2905 17.0753 48.0649 16.8266C47.8393 16.578 47.6682 16.2848 47.5626 15.9661C47.457 15.6474 47.4193 15.3101 47.4518 14.9759ZM51.212 14.9759C51.212 13.8747 50.7173 13.2308 49.8492 13.2308C48.9777 13.2308 48.4875 13.8747 48.4875 14.9759C48.4875 16.0859 48.9777 16.7249 49.8492 16.7249C50.7173 16.7249 51.212 16.0815 51.212 14.9759H51.212Z" fill="white"/>
<path d="M58.6122 17.5182H57.5722L56.5223 13.7768H56.443L55.3974 17.5182H54.3673L52.967 12.4382H53.9839L54.8939 16.3146H54.9689L56.0133 12.4382H56.9751L58.0195 16.3146H58.0988L59.0045 12.4382H60.007L58.6122 17.5182Z" fill="white"/>
<path d="M61.1848 12.4383H62.1499V13.2453H62.2248C62.3519 12.9554 62.5662 12.7124 62.838 12.5502C63.1097 12.388 63.4253 12.3146 63.7407 12.3402C63.9879 12.3216 64.2361 12.3589 64.4669 12.4493C64.6978 12.5396 64.9053 12.6808 65.0741 12.8622C65.243 13.0437 65.3689 13.2608 65.4424 13.4975C65.516 13.7342 65.5354 13.9844 65.4991 14.2296V17.5182H64.4965V14.4814C64.4965 13.665 64.1418 13.259 63.4003 13.259C63.2325 13.2512 63.065 13.2798 62.9092 13.3428C62.7535 13.4058 62.6132 13.5017 62.498 13.624C62.3827 13.7462 62.2953 13.892 62.2417 14.0512C62.1881 14.2104 62.1695 14.3793 62.1873 14.5464V17.5183H61.1848L61.1848 12.4383Z" fill="white"/>
<path d="M67.0966 10.4551H68.0991V17.5182H67.0966V10.4551Z" fill="white"/>
<path d="M69.4927 14.976C69.4608 14.6421 69.4991 14.3053 69.6049 13.987C69.7108 13.6688 69.8821 13.3762 70.1077 13.128C70.3332 12.8799 70.6082 12.6816 70.9149 12.5459C71.2216 12.4102 71.5533 12.3401 71.8887 12.3401C72.2241 12.3401 72.5558 12.4102 72.8625 12.5459C73.1692 12.6816 73.4442 12.8799 73.6698 13.128C73.8954 13.3762 74.0666 13.6688 74.1725 13.987C74.2784 14.3053 74.3166 14.6421 74.2847 14.976C74.3172 15.3102 74.2794 15.6475 74.1738 15.9662C74.0682 16.285 73.897 16.5781 73.6714 16.8267C73.4457 17.0754 73.1706 17.2741 72.8636 17.41C72.5565 17.546 72.2245 17.6163 71.8887 17.6163C71.5529 17.6163 71.2209 17.546 70.9139 17.41C70.6069 17.2741 70.3317 17.0754 70.106 16.8267C69.8804 16.5781 69.7093 16.285 69.6036 15.9662C69.498 15.6475 69.4602 15.3102 69.4927 14.976ZM73.2529 14.976C73.2529 13.8748 72.7582 13.2309 71.8901 13.2309C71.0186 13.2309 70.5284 13.8748 70.5284 14.976C70.5284 16.086 71.0187 16.725 71.8901 16.725C72.7582 16.725 73.2529 16.0816 73.2529 14.976H73.2529Z" fill="white"/>
<path d="M75.3401 16.0815C75.3401 15.1671 76.021 14.6399 77.2296 14.565L78.6056 14.4857V14.0472C78.6056 13.5107 78.2509 13.2077 77.5656 13.2077C77.0059 13.2077 76.6181 13.4132 76.5069 13.7723H75.5363C75.6387 12.8998 76.4595 12.3401 77.6119 12.3401C78.8855 12.3401 79.6038 12.9741 79.6038 14.0472V17.5182H78.6387V16.8042H78.5594C78.3984 17.0603 78.1723 17.2691 77.9042 17.4092C77.6361 17.5494 77.3357 17.6158 77.0335 17.6019C76.8202 17.624 76.6047 17.6013 76.4008 17.5351C76.1968 17.4688 76.009 17.3606 75.8495 17.2174C75.69 17.0741 75.5622 16.8991 75.4745 16.7034C75.3867 16.5078 75.341 16.2959 75.3401 16.0815ZM78.6056 15.6474V15.2227L77.3651 15.302C76.6655 15.3489 76.3482 15.5868 76.3482 16.0347C76.3482 16.4919 76.7448 16.758 77.2902 16.758C77.45 16.7741 77.6114 16.758 77.7649 16.7105C77.9183 16.663 78.0606 16.5852 78.1834 16.4816C78.3061 16.3779 78.4067 16.2507 78.4793 16.1074C78.5518 15.9641 78.5948 15.8077 78.6056 15.6474Z" fill="white"/>
<path d="M80.9214 14.976C80.9214 13.3708 81.7466 12.3539 83.0301 12.3539C83.3476 12.3393 83.6627 12.4153 83.9386 12.5731C84.2144 12.731 84.4397 12.964 84.588 13.2451H84.6629V10.4551H85.6654V17.5182H84.7048V16.7156H84.6254C84.4657 16.9948 84.2326 17.225 83.9514 17.3812C83.6702 17.5374 83.3516 17.6138 83.0301 17.6019C81.7378 17.602 80.9214 16.585 80.9214 14.976ZM81.9571 14.976C81.9571 16.0535 82.465 16.7018 83.3144 16.7018C84.1594 16.7018 84.6816 16.0441 84.6816 14.9804C84.6816 13.9216 84.1539 13.2546 83.3144 13.2546C82.4705 13.2546 81.9571 13.9073 81.9571 14.976H81.9571Z" fill="white"/>
<path d="M89.8134 14.9759C89.7815 14.642 89.8196 14.3052 89.9255 13.987C90.0314 13.6688 90.2026 13.3762 90.4282 13.128C90.6537 12.8799 90.9287 12.6816 91.2354 12.5459C91.542 12.4102 91.8737 12.3401 92.2091 12.3401C92.5444 12.3401 92.8761 12.4102 93.1828 12.5459C93.4895 12.6816 93.7644 12.8799 93.99 13.128C94.2156 13.3762 94.3868 13.6688 94.4926 13.987C94.5985 14.3052 94.6367 14.642 94.6048 14.9759C94.6373 15.3101 94.5996 15.6474 94.494 15.9661C94.3884 16.2848 94.2173 16.578 93.9917 16.8266C93.766 17.0753 93.4909 17.274 93.1839 17.41C92.8769 17.546 92.5448 17.6162 92.2091 17.6162C91.8733 17.6162 91.5413 17.546 91.2343 17.41C90.9273 17.274 90.6521 17.0753 90.4265 16.8266C90.2009 16.578 90.0298 16.2848 89.9242 15.9661C89.8186 15.6474 89.7809 15.3101 89.8134 14.9759ZM93.5735 14.9759C93.5735 13.8747 93.0789 13.2308 92.2107 13.2308C91.3393 13.2308 90.849 13.8747 90.849 14.9759C90.849 16.0859 91.3393 16.7249 92.2107 16.7249C93.0789 16.7249 93.5735 16.0815 93.5735 14.9759Z" fill="white"/>
<path d="M95.95 12.4383H96.9151V13.2453H96.99C97.1171 12.9554 97.3314 12.7124 97.6032 12.5502C97.8749 12.388 98.1905 12.3146 98.5059 12.3402C98.7531 12.3216 99.0013 12.3589 99.2321 12.4493C99.4629 12.5396 99.6705 12.6808 99.8393 12.8622C100.008 13.0437 100.134 13.2608 100.208 13.4975C100.281 13.7342 100.301 13.9844 100.264 14.2296V17.5182H99.2617V14.4814C99.2617 13.665 98.907 13.259 98.1655 13.259C97.9977 13.2512 97.8302 13.2798 97.6744 13.3428C97.5187 13.4058 97.3784 13.5017 97.2632 13.624C97.1479 13.7462 97.0605 13.892 97.0069 14.0512C96.9533 14.2104 96.9347 14.3793 96.9525 14.5464V17.5183H95.95V12.4383Z" fill="white"/>
<path d="M105.929 11.1733V12.4612H107.03V13.3057H105.929V15.9179C105.929 16.45 106.149 16.683 106.648 16.683C106.775 16.6826 106.903 16.6749 107.03 16.6599V17.495C106.85 17.5272 106.667 17.5443 106.485 17.5462C105.37 17.5462 104.926 17.154 104.926 16.1746V13.3057H104.119V12.4612H104.926V11.1733H105.929Z" fill="white"/>
<path d="M108.399 10.4551H109.393V13.2545H109.472C109.606 12.962 109.826 12.7176 110.103 12.5548C110.38 12.3919 110.701 12.3185 111.021 12.3445C111.267 12.3311 111.513 12.3722 111.741 12.4648C111.969 12.5573 112.174 12.6991 112.342 12.88C112.509 13.0609 112.634 13.2764 112.708 13.5112C112.782 13.746 112.804 13.9943 112.771 14.2384V17.5182H111.767V14.4857C111.767 13.6743 111.389 13.2633 110.681 13.2633C110.509 13.2492 110.335 13.2729 110.173 13.3328C110.011 13.3926 109.864 13.4872 109.742 13.6099C109.62 13.7325 109.527 13.8803 109.468 14.0429C109.409 14.2056 109.387 14.379 109.402 14.5513V17.5182H108.399L108.399 10.4551Z" fill="white"/>
<path d="M118.617 16.1466C118.48 16.6109 118.185 17.0125 117.783 17.2812C117.381 17.5498 116.896 17.6685 116.415 17.6163C116.081 17.6251 115.748 17.561 115.441 17.4284C115.133 17.2958 114.858 17.0979 114.635 16.8485C114.412 16.599 114.246 16.3039 114.148 15.9837C114.05 15.6635 114.023 15.3259 114.069 14.9942C114.024 14.6615 114.052 14.3232 114.149 14.002C114.247 13.6809 114.412 13.3844 114.634 13.1327C114.856 12.8811 115.13 12.6801 115.437 12.5433C115.743 12.4066 116.075 12.3373 116.411 12.3402C117.825 12.3402 118.677 13.3059 118.677 14.9011V15.2509H115.09V15.3071C115.074 15.4935 115.098 15.6812 115.159 15.858C115.22 16.0349 115.317 16.197 115.445 16.334C115.572 16.471 115.727 16.5799 115.899 16.6537C116.07 16.7275 116.256 16.7645 116.443 16.7624C116.683 16.7912 116.926 16.748 117.141 16.6384C117.356 16.5287 117.534 16.3575 117.652 16.1466L118.617 16.1466ZM115.09 14.5095H117.656C117.669 14.339 117.645 14.1677 117.588 14.0067C117.53 13.8457 117.44 13.6985 117.322 13.5745C117.204 13.4506 117.062 13.3527 116.904 13.287C116.746 13.2214 116.576 13.1895 116.405 13.1935C116.232 13.1913 116.06 13.2238 115.899 13.2892C115.739 13.3546 115.593 13.4514 115.47 13.5741C115.348 13.6967 115.251 13.8427 115.186 14.0033C115.12 14.164 115.088 14.3361 115.09 14.5095H115.09Z" fill="white"/>
</g>
<defs>
<clipPath id="clip0_1581_12012">
<rect width="135" height="45.1263" fill="white" transform="translate(0.429443 0.936768)"/>
</clipPath>
</defs>
</svg>
