<?xml version="1.0" standalone="no"?>
<!DOCTYPE svg PUBLIC "-//W3C//DTD SVG 20010904//EN"
 "http://www.w3.org/TR/2001/REC-SVG-20010904/DTD/svg10.dtd">
<svg version="1.0" xmlns="http://www.w3.org/2000/svg"
 width="1080.000000pt" height="1080.000000pt" viewBox="0 0 1080.000000 1080.000000"
 preserveAspectRatio="xMidYMid meet">

<g transform="translate(0.000000,1080.000000) scale(0.100000,-0.100000)"
fill="#000000" stroke="none" >
<path d="M3266 8310 c-90 -36 -161 -126 -192 -245 -19 -69 -17 -104 5 -142 17
-26 30 -33 90 -47 214 -49 362 29 421 222 51 163 5 220 -185 228 -73 4 -99 1
-139 -16z m189 -109 c35 -8 36 -27 3 -104 -37 -86 -110 -124 -214 -111 -62 7
-64 12 -38 89 20 57 81 122 121 128 42 6 94 5 128 -2z"/>
<path d="M4372 7960 c-98 -26 -165 -64 -232 -130 -94 -94 -150 -229 -150 -364
0 -33 16 -141 36 -240 81 -410 96 -656 69 -1121 -24 -422 -8 -642 71 -957 171
-678 603 -1142 1209 -1298 l110 -28 -5 -104 c-11 -237 -4 -680 13 -799 30
-202 85 -381 130 -417 23 -19 57 -11 80 20 l20 27 -27 63 c-36 86 -63 200 -83
343 -18 137 -23 527 -9 748 l8 138 56 41 c192 142 384 370 490 583 207 416
210 904 7 1423 -117 297 -298 596 -691 1142 -140 194 -293 422 -380 565 -159
265 -315 373 -549 381 -77 3 -117 0 -173 -16z m240 -111 c78 -16 186 -76 244
-135 27 -28 99 -129 159 -225 122 -196 177 -277 385 -569 81 -113 185 -261
232 -330 391 -569 559 -1004 560 -1450 1 -324 -89 -595 -283 -853 -70 -93
-217 -244 -260 -268 -15 -8 -17 20 -22 299 -3 176 -12 369 -21 452 -89 798
-313 1461 -625 1853 -70 87 -101 106 -137 82 -47 -31 -42 -57 30 -147 297
-369 512 -999 601 -1753 24 -204 39 -563 31 -718 l-8 -139 -35 7 c-132 25
-344 110 -468 188 -182 114 -352 282 -467 462 -148 230 -249 521 -298 865 -21
146 -22 172 -14 445 22 725 12 924 -63 1300 -59 291 -47 395 59 511 98 106
252 154 400 123z"/>
<path d="M3815 7733 c-283 -23 -625 -113 -840 -220 -510 -255 -846 -665 -956
-1168 -29 -134 -34 -323 -15 -592 18 -251 14 -327 -22 -433 -42 -121 -96 -204
-241 -370 -88 -100 -131 -174 -131 -226 0 -17 7 -54 16 -83 18 -62 56 -103
172 -184 149 -105 195 -204 227 -494 38 -342 52 -409 105 -500 82 -142 262
-202 530 -174 291 30 422 35 503 18 43 -9 94 -26 114 -38 67 -42 131 -216 198
-539 18 -91 38 -177 43 -190 13 -32 59 -76 95 -89 19 -8 318 -11 933 -11 891
0 904 0 924 20 25 25 25 51 3 79 l-18 21 -902 3 c-607 1 -905 5 -912 12 -6 6
-24 76 -40 156 -51 252 -97 411 -147 511 -87 173 -251 222 -624 187 -389 -36
-484 -26 -561 58 -66 71 -81 125 -109 391 -11 109 -23 205 -26 214 -4 13 3 18
33 23 204 33 295 84 265 150 -17 37 -51 40 -133 10 -39 -14 -99 -29 -131 -34
-51 -7 -61 -5 -65 8 -48 138 -118 229 -245 318 -97 68 -118 94 -118 146 0 45
13 64 125 192 180 203 256 362 272 564 3 43 -2 196 -12 340 -20 297 -15 397
30 575 142 555 627 997 1276 1161 124 32 335 65 412 65 32 0 73 7 92 14 30 13
35 20 35 49 0 61 -25 71 -155 60z"/>
<path d="M5622 7629 c-80 -14 -119 -34 -137 -70 -15 -28 -15 -40 -5 -92 26
-133 97 -236 192 -277 46 -20 65 -22 149 -18 107 5 159 24 193 70 18 26 19 32
7 95 -25 135 -91 232 -185 274 -52 22 -145 30 -214 18z m198 -154 c39 -37 69
-93 72 -136 3 -31 0 -33 -37 -42 -59 -13 -128 -3 -164 22 -33 24 -74 94 -85
148 -9 39 0 42 106 40 70 -2 79 -5 108 -32z"/>
<path d="M6915 7120 c-141 -30 -232 -99 -500 -375 -125 -130 -264 -264 -309
-298 -60 -46 -82 -70 -84 -89 -4 -29 30 -68 59 -68 29 0 179 118 279 220 52
52 158 161 235 241 194 201 281 252 424 251 80 -2 122 -13 172 -48 64 -44 74
-78 73 -239 -1 -129 -5 -162 -57 -416 -79 -384 -96 -508 -107 -779 -6 -129
-15 -285 -20 -346 -23 -256 -122 -514 -277 -720 -143 -192 -395 -380 -636
-475 -98 -39 -270 -89 -355 -104 -91 -16 -122 -34 -122 -72 0 -24 32 -63 51
-63 6 0 66 11 133 25 519 105 954 421 1169 850 125 248 162 426 177 835 11
301 24 405 105 817 30 153 60 326 67 385 26 241 -44 386 -215 447 -73 25 -197
36 -262 21z"/>
<path d="M2428 5435 c-46 -31 -88 -40 -125 -28 -34 12 -68 1 -83 -27 -43 -80
108 -132 225 -76 92 43 119 92 75 136 -26 26 -48 25 -92 -5z"/>
<path d="M4380 4000 c-59 -27 -115 -83 -148 -145 -23 -43 -27 -62 -27 -140 0
-79 3 -97 28 -145 61 -118 155 -201 312 -276 134 -64 317 -104 473 -104 l66 0
111 -110 c94 -92 117 -110 143 -110 17 0 38 7 46 16 34 34 20 60 -92 171 -100
99 -111 114 -137 183 -113 302 -297 539 -493 637 -63 31 -85 37 -155 40 -67 3
-90 0 -127 -17z m242 -142 c80 -42 197 -158 267 -263 53 -80 141 -253 141
-275 0 -34 -309 25 -433 84 -166 77 -277 204 -277 316 0 61 61 149 120 173 34
15 121 -2 182 -35z"/>
<path d="M6387 3556 c-105 -38 -214 -181 -312 -409 -52 -121 -85 -157 -227
-252 -111 -74 -125 -92 -106 -133 10 -21 21 -28 48 -30 41 -3 135 55 264 162
43 36 84 66 91 66 29 0 177 56 259 98 103 53 204 141 235 206 43 88 20 192
-56 255 -60 50 -125 62 -196 37z m126 -144 c16 -16 27 -36 27 -52 0 -67 -115
-165 -264 -226 -44 -18 -82 -31 -84 -30 -6 6 69 148 108 206 64 94 131 146
170 132 8 -3 27 -16 43 -30z"/>
</g>
</svg>
