<svg width="136" height="41" viewBox="0 0 136 41" fill="none" xmlns="http://www.w3.org/2000/svg">
<path d="M130.429 40.063H5.42944C2.62944 40.063 0.429443 37.863 0.429443 35.063V5.06299C0.429443 2.26299 2.62944 0.0629883 5.42944 0.0629883H130.429C133.229 0.0629883 135.429 2.26299 135.429 5.06299V35.063C135.429 37.863 133.229 40.063 130.429 40.063Z" fill="black"/>
<path d="M130.429 0.862988C132.729 0.862988 134.629 2.76299 134.629 5.06299V35.063C134.629 37.363 132.729 39.263 130.429 39.263H5.42944C3.12944 39.263 1.22944 37.363 1.22944 35.063V5.06299C1.22944 2.76299 3.12944 0.862988 5.42944 0.862988H130.429ZM130.429 0.0629883H5.42944C2.62944 0.0629883 0.429443 2.36299 0.429443 5.06299V35.063C0.429443 37.863 2.62944 40.063 5.42944 40.063H130.429C133.229 40.063 135.429 37.863 135.429 35.063V5.06299C135.429 2.36299 133.229 0.0629883 130.429 0.0629883Z" fill="#A6A6A6"/>
<path d="M47.8293 10.2634C47.8293 11.0634 47.6293 11.7634 47.1293 12.2634C46.5293 12.8634 45.8293 13.1634 44.9293 13.1634C44.0293 13.1634 43.3293 12.8634 42.7293 12.2634C42.1293 11.6634 41.8293 10.9634 41.8293 10.0634C41.8293 9.16338 42.1293 8.46338 42.7293 7.86338C43.3293 7.26338 44.0293 6.96338 44.9293 6.96338C45.3293 6.96338 45.7293 7.06338 46.1293 7.26338C46.5293 7.46338 46.8293 7.66338 47.0293 7.96338L46.5293 8.46338C46.1293 7.96338 45.6293 7.76338 44.9293 7.76338C44.3293 7.76338 43.7293 7.96338 43.3293 8.46338C42.8293 8.86338 42.6293 9.46338 42.6293 10.1634C42.6293 10.8634 42.8293 11.4634 43.3293 11.8634C43.8293 12.2634 44.3293 12.5634 44.9293 12.5634C45.6293 12.5634 46.1293 12.3634 46.6293 11.8634C46.9293 11.5634 47.1293 11.1634 47.1293 10.6634H44.9293V9.86338H47.8293V10.2634ZM52.4293 7.76338H49.7293V9.66338H52.2293V10.3634H49.7293V12.2634H52.4293V13.0634H48.9293V7.06338H52.4293V7.76338ZM55.7293 13.0634H54.9293V7.76338H53.2293V7.06338H57.4293V7.76338H55.7293V13.0634ZM60.3293 13.0634V7.06338H61.1293V13.0634H60.3293ZM64.5293 13.0634H63.7293V7.76338H62.0293V7.06338H66.1293V7.76338H64.4293V13.0634H64.5293ZM74.0293 12.2634C73.4293 12.8634 72.7293 13.1634 71.8293 13.1634C70.9293 13.1634 70.2293 12.8634 69.6293 12.2634C69.0293 11.6634 68.7293 10.9634 68.7293 10.0634C68.7293 9.16338 69.0293 8.46338 69.6293 7.86338C70.2293 7.26338 70.9293 6.96338 71.8293 6.96338C72.7293 6.96338 73.4293 7.26338 74.0293 7.86338C74.6293 8.46338 74.9293 9.16338 74.9293 10.0634C74.9293 10.9634 74.6293 11.6634 74.0293 12.2634ZM70.2293 11.7634C70.6293 12.1634 71.2293 12.4634 71.8293 12.4634C72.4293 12.4634 73.0293 12.2634 73.4293 11.7634C73.8293 11.3634 74.1293 10.7634 74.1293 10.0634C74.1293 9.36338 73.9293 8.76338 73.4293 8.36338C73.0293 7.96338 72.4293 7.66338 71.8293 7.66338C71.2293 7.66338 70.6293 7.86338 70.2293 8.36338C69.8293 8.76338 69.5293 9.36338 69.5293 10.0634C69.5293 10.7634 69.7293 11.3634 70.2293 11.7634ZM76.0293 13.0634V7.06338H76.9293L79.8293 11.7634V7.06338H80.6293V13.0634H79.8293L76.7293 8.16338V13.0634H76.0293Z" fill="white" stroke="white" stroke-width="0.2" stroke-miterlimit="10"/>
<path d="M68.5295 21.8626C66.1295 21.8626 64.2295 23.6626 64.2295 26.1626C64.2295 28.5626 66.1295 30.4626 68.5295 30.4626C70.9295 30.4626 72.8295 28.6626 72.8295 26.1626C72.8295 23.5626 70.9295 21.8626 68.5295 21.8626ZM68.5295 28.6626C67.2295 28.6626 66.1295 27.5626 66.1295 26.0626C66.1295 24.5626 67.2295 23.4626 68.5295 23.4626C69.8295 23.4626 70.9295 24.4626 70.9295 26.0626C70.9295 27.5626 69.8295 28.6626 68.5295 28.6626ZM59.2295 21.8626C56.8295 21.8626 54.9295 23.6626 54.9295 26.1626C54.9295 28.5626 56.8295 30.4626 59.2295 30.4626C61.6295 30.4626 63.5295 28.6626 63.5295 26.1626C63.5295 23.5626 61.6295 21.8626 59.2295 21.8626ZM59.2295 28.6626C57.9295 28.6626 56.8295 27.5626 56.8295 26.0626C56.8295 24.5626 57.9295 23.4626 59.2295 23.4626C60.5295 23.4626 61.6295 24.4626 61.6295 26.0626C61.6295 27.5626 60.5295 28.6626 59.2295 28.6626ZM48.1295 23.1626V24.9626H52.4295C52.3295 25.9626 51.9295 26.7626 51.4295 27.2626C50.8295 27.8626 49.8295 28.5626 48.1295 28.5626C45.4295 28.5626 43.4295 26.4626 43.4295 23.7626C43.4295 21.0626 45.5295 18.9626 48.1295 18.9626C49.5295 18.9626 50.6295 19.5626 51.4295 20.2626L52.7295 18.9626C51.6295 17.9626 50.2295 17.1626 48.2295 17.1626C44.6295 17.1626 41.5295 20.1626 41.5295 23.7626C41.5295 27.3626 44.6295 30.3626 48.2295 30.3626C50.2295 30.3626 51.6295 29.7626 52.8295 28.4626C54.0295 27.2626 54.4295 25.5626 54.4295 24.2626C54.4295 23.8626 54.4295 23.4626 54.3295 23.1626H48.1295ZM93.5295 24.5626C93.1295 23.5626 92.1295 21.8626 89.9295 21.8626C87.7295 21.8626 85.9295 23.5626 85.9295 26.1626C85.9295 28.5626 87.7295 30.4626 90.1295 30.4626C92.0295 30.4626 93.2295 29.2626 93.6295 28.5626L92.2295 27.5626C91.7295 28.2626 91.1295 28.7626 90.1295 28.7626C89.1295 28.7626 88.5295 28.3626 88.0295 27.4626L93.7295 25.0626L93.5295 24.5626ZM87.7295 25.9626C87.7295 24.3626 89.0295 23.4626 89.9295 23.4626C90.6295 23.4626 91.3295 23.8626 91.5295 24.3626L87.7295 25.9626ZM83.0295 30.0626H84.9295V17.5626H83.0295V30.0626ZM80.0295 22.7626C79.5295 22.2626 78.7295 21.7626 77.7295 21.7626C75.6295 21.7626 73.6295 23.6626 73.6295 26.0626C73.6295 28.4626 75.5295 30.2626 77.7295 30.2626C78.7295 30.2626 79.5295 29.7626 79.9295 29.2626H80.0295V29.8626C80.0295 31.4626 79.1295 32.3626 77.7295 32.3626C76.6295 32.3626 75.8295 31.5626 75.6295 30.8626L74.0295 31.5626C74.5295 32.6626 75.7295 34.0626 77.8295 34.0626C80.0295 34.0626 81.8295 32.7626 81.8295 29.6626V22.0626H80.0295V22.7626ZM77.8295 28.6626C76.5295 28.6626 75.4295 27.5626 75.4295 26.0626C75.4295 24.5626 76.5295 23.4626 77.8295 23.4626C79.1295 23.4626 80.1295 24.5626 80.1295 26.0626C80.1295 27.5626 79.1295 28.6626 77.8295 28.6626ZM102.23 17.5626H97.7295V30.0626H99.6295V25.3626H102.23C104.33 25.3626 106.33 23.8626 106.33 21.4626C106.33 19.0626 104.33 17.5626 102.23 17.5626ZM102.33 23.5626H99.6295V19.2626H102.33C103.73 19.2626 104.53 20.4626 104.53 21.3626C104.43 22.4626 103.63 23.5626 102.33 23.5626ZM113.83 21.7626C112.43 21.7626 111.03 22.3626 110.53 23.6626L112.23 24.3626C112.63 23.6626 113.23 23.4626 113.93 23.4626C114.93 23.4626 115.83 24.0626 115.93 25.0626V25.1626C115.63 24.9626 114.83 24.6626 114.03 24.6626C112.23 24.6626 110.43 25.6626 110.43 27.4626C110.43 29.1626 111.93 30.2626 113.53 30.2626C114.83 30.2626 115.43 29.6626 115.93 29.0626H116.03V30.0626H117.83V25.2626C117.63 23.0626 115.93 21.7626 113.83 21.7626ZM113.63 28.6626C113.03 28.6626 112.13 28.3626 112.13 27.5626C112.13 26.5626 113.23 26.2626 114.13 26.2626C114.93 26.2626 115.33 26.4626 115.83 26.6626C115.63 27.8626 114.63 28.6626 113.63 28.6626ZM124.13 22.0626L122.03 27.4626H121.93L119.73 22.0626H117.73L121.03 29.6626L119.13 33.8626H121.03L126.13 22.0626H124.13ZM107.33 30.0626H109.23V17.5626H107.33V30.0626Z" fill="white"/>
<path d="M10.8294 7.56323C10.5294 7.86323 10.4294 8.36323 10.4294 8.96323V31.0632C10.4294 31.6632 10.6294 32.1632 10.9294 32.4632L11.0294 32.5632L23.4294 20.1632V19.9632L10.8294 7.56323Z" fill="url(#paint0_linear_1581_12047)"/>
<path d="M27.4295 24.3633L23.3295 20.2633V19.9633L27.4295 15.8633L27.5295 15.9633L32.4295 18.7633C33.8295 19.5633 33.8295 20.8633 32.4295 21.6633L27.4295 24.3633Z" fill="url(#paint1_linear_1581_12047)"/>
<path d="M27.5295 24.2632L23.3295 20.0632L10.8295 32.5632C11.3295 33.0632 12.0295 33.0632 12.9295 32.6632L27.5295 24.2632Z" fill="url(#paint2_linear_1581_12047)"/>
<path d="M27.5295 15.8633L12.9295 7.56334C12.0295 7.06334 11.3295 7.16334 10.8295 7.66334L23.3295 20.0633L27.5295 15.8633Z" fill="url(#paint3_linear_1581_12047)"/>
<path opacity="0.2" d="M27.4295 24.1633L12.9295 32.3633C12.1295 32.8633 11.4295 32.7633 10.9295 32.3633L10.8295 32.4633L10.9295 32.5633C11.4295 32.9633 12.1295 33.0633 12.9295 32.5633L27.4295 24.1633Z" fill="black"/>
<path opacity="0.12" d="M10.8294 32.3632C10.5294 32.0632 10.4294 31.5632 10.4294 30.9632V31.0632C10.4294 31.6632 10.6294 32.1632 10.9294 32.4632V32.3632H10.8294ZM32.4294 21.3632L27.4294 24.1632L27.5294 24.2632L32.4294 21.4632C33.1294 21.0632 33.4294 20.5632 33.4294 20.0632C33.4294 20.5632 33.0294 20.9632 32.4294 21.3632Z" fill="black"/>
<path opacity="0.25" d="M12.9294 7.66326L32.4294 18.7633C33.0294 19.1633 33.4294 19.5633 33.4294 20.0633C33.4294 19.5633 33.1294 19.0633 32.4294 18.6633L12.9294 7.56326C11.5294 6.76326 10.4294 7.36326 10.4294 8.96326V9.06326C10.4294 7.56326 11.5294 6.86326 12.9294 7.66326Z" fill="white"/>
<defs>
<linearGradient id="paint0_linear_1581_12047" x1="22.2294" y1="8.77323" x2="5.44644" y2="25.5552" gradientUnits="userSpaceOnUse">
<stop stop-color="#00A0FF"/>
<stop offset="0.007" stop-color="#00A1FF"/>
<stop offset="0.26" stop-color="#00BEFF"/>
<stop offset="0.512" stop-color="#00D2FF"/>
<stop offset="0.76" stop-color="#00DFFF"/>
<stop offset="1" stop-color="#00E3FF"/>
</linearGradient>
<linearGradient id="paint1_linear_1581_12047" x1="34.2635" y1="20.0643" x2="10.0665" y2="20.0643" gradientUnits="userSpaceOnUse">
<stop stop-color="#FFE000"/>
<stop offset="0.409" stop-color="#FFBD00"/>
<stop offset="0.775" stop-color="#FFA500"/>
<stop offset="1" stop-color="#FF9C00"/>
</linearGradient>
<linearGradient id="paint2_linear_1581_12047" x1="25.2565" y1="22.3592" x2="2.49847" y2="45.1172" gradientUnits="userSpaceOnUse">
<stop stop-color="#FF3A44"/>
<stop offset="1" stop-color="#C31162"/>
</linearGradient>
<linearGradient id="paint3_linear_1581_12047" x1="7.72647" y1="0.239345" x2="17.8895" y2="10.4023" gradientUnits="userSpaceOnUse">
<stop stop-color="#32A071"/>
<stop offset="0.069" stop-color="#2DA771"/>
<stop offset="0.476" stop-color="#15CF74"/>
<stop offset="0.801" stop-color="#06E775"/>
<stop offset="1" stop-color="#00F076"/>
</linearGradient>
</defs>
</svg>
